<mxfile host="app.diagrams.net" agent="Mozilla/5.0 (X11; Linux x86_64) AppleWebKit/537.36 (KHTML, like Gecko) Chrome/131.0.0.0 Safari/537.36" version="27.1.6">
  <diagram name="Page-1" id="XsMV1pbA08V9smy5uZbe">
    <mxGraphModel dx="2571" dy="972" grid="1" gridSize="10" guides="1" tooltips="1" connect="1" arrows="1" fold="1" page="1" pageScale="1" pageWidth="827" pageHeight="1169" math="0" shadow="0">
      <root>
        <mxCell id="0" />
        <mxCell id="1" parent="0" />
        <mxCell id="-TdzUYb_KiUfpZxkLXkX-3" value="User" style="whiteSpace=wrap;html=1;align=center;" parent="1" vertex="1">
          <mxGeometry x="-3" y="580" width="100" height="40" as="geometry" />
        </mxCell>
        <mxCell id="-TdzUYb_KiUfpZxkLXkX-4" value="News" style="whiteSpace=wrap;html=1;align=center;" parent="1" vertex="1">
          <mxGeometry x="320" y="370" width="100" height="40" as="geometry" />
        </mxCell>
        <mxCell id="-TdzUYb_KiUfpZxkLXkX-5" value="SavedArticles" style="whiteSpace=wrap;html=1;align=center;" parent="1" vertex="1">
          <mxGeometry x="-3" y="290" width="100" height="40" as="geometry" />
        </mxCell>
        <mxCell id="-TdzUYb_KiUfpZxkLXkX-6" value="Notification" style="whiteSpace=wrap;html=1;align=center;" parent="1" vertex="1">
          <mxGeometry x="507" y="580" width="100" height="40" as="geometry" />
        </mxCell>
        <mxCell id="-TdzUYb_KiUfpZxkLXkX-7" value="ExternalAPIs&lt;div&gt;Configs&lt;/div&gt;" style="whiteSpace=wrap;html=1;align=center;" parent="1" vertex="1">
          <mxGeometry x="-403" y="330" width="100" height="40" as="geometry" />
        </mxCell>
        <mxCell id="-TdzUYb_KiUfpZxkLXkX-8" value="NotificationConfig" style="whiteSpace=wrap;html=1;align=center;" parent="1" vertex="1">
          <mxGeometry x="365.5" y="780" width="100" height="40" as="geometry" />
        </mxCell>
        <mxCell id="-TdzUYb_KiUfpZxkLXkX-9" value="Roles" style="whiteSpace=wrap;html=1;align=center;" parent="1" vertex="1">
          <mxGeometry x="-423" y="580" width="100" height="40" as="geometry" />
        </mxCell>
        <mxCell id="-TdzUYb_KiUfpZxkLXkX-10" value="NewsCategory" style="whiteSpace=wrap;html=1;align=center;" parent="1" vertex="1">
          <mxGeometry x="320" y="200" width="100" height="40" as="geometry" />
        </mxCell>
        <mxCell id="-TdzUYb_KiUfpZxkLXkX-11" value="Keywords" style="whiteSpace=wrap;html=1;align=center;" parent="1" vertex="1">
          <mxGeometry x="-1.5" y="910" width="100" height="40" as="geometry" />
        </mxCell>
        <mxCell id="-TdzUYb_KiUfpZxkLXkX-12" value="has" style="shape=rhombus;perimeter=rhombusPerimeter;whiteSpace=wrap;html=1;align=center;" parent="1" vertex="1">
          <mxGeometry x="-283" y="570" width="120" height="60" as="geometry" />
        </mxCell>
        <mxCell id="-TdzUYb_KiUfpZxkLXkX-17" value="" style="endArrow=none;html=1;rounded=0;exitX=1;exitY=0.5;exitDx=0;exitDy=0;entryX=0;entryY=0.5;entryDx=0;entryDy=0;" parent="1" source="-TdzUYb_KiUfpZxkLXkX-12" target="-TdzUYb_KiUfpZxkLXkX-3" edge="1">
          <mxGeometry relative="1" as="geometry">
            <mxPoint x="107" y="630" as="sourcePoint" />
            <mxPoint x="267" y="630" as="targetPoint" />
          </mxGeometry>
        </mxCell>
        <mxCell id="-TdzUYb_KiUfpZxkLXkX-18" value="1" style="resizable=0;html=1;whiteSpace=wrap;align=right;verticalAlign=bottom;" parent="-TdzUYb_KiUfpZxkLXkX-17" connectable="0" vertex="1">
          <mxGeometry x="1" relative="1" as="geometry" />
        </mxCell>
        <mxCell id="-TdzUYb_KiUfpZxkLXkX-19" value="" style="endArrow=none;html=1;rounded=0;exitX=0;exitY=0.5;exitDx=0;exitDy=0;entryX=1;entryY=0.5;entryDx=0;entryDy=0;" parent="1" source="-TdzUYb_KiUfpZxkLXkX-12" target="-TdzUYb_KiUfpZxkLXkX-9" edge="1">
          <mxGeometry relative="1" as="geometry">
            <mxPoint x="-153" y="590" as="sourcePoint" />
            <mxPoint x="-123" y="590" as="targetPoint" />
          </mxGeometry>
        </mxCell>
        <mxCell id="-TdzUYb_KiUfpZxkLXkX-20" value="1" style="resizable=0;html=1;whiteSpace=wrap;align=right;verticalAlign=bottom;" parent="-TdzUYb_KiUfpZxkLXkX-19" connectable="0" vertex="1">
          <mxGeometry x="1" relative="1" as="geometry">
            <mxPoint x="10" as="offset" />
          </mxGeometry>
        </mxCell>
        <mxCell id="-TdzUYb_KiUfpZxkLXkX-21" value="saves" style="shape=rhombus;perimeter=rhombusPerimeter;whiteSpace=wrap;html=1;align=center;" parent="1" vertex="1">
          <mxGeometry x="-13" y="370" width="120" height="60" as="geometry" />
        </mxCell>
        <mxCell id="-TdzUYb_KiUfpZxkLXkX-22" value="" style="endArrow=none;html=1;rounded=0;exitX=0.5;exitY=1;exitDx=0;exitDy=0;entryX=0.5;entryY=0;entryDx=0;entryDy=0;" parent="1" source="-TdzUYb_KiUfpZxkLXkX-21" target="-TdzUYb_KiUfpZxkLXkX-3" edge="1">
          <mxGeometry relative="1" as="geometry">
            <mxPoint x="7" y="650" as="sourcePoint" />
            <mxPoint x="37" y="650" as="targetPoint" />
          </mxGeometry>
        </mxCell>
        <mxCell id="-TdzUYb_KiUfpZxkLXkX-23" value="1" style="resizable=0;html=1;whiteSpace=wrap;align=right;verticalAlign=bottom;" parent="-TdzUYb_KiUfpZxkLXkX-22" connectable="0" vertex="1">
          <mxGeometry x="1" relative="1" as="geometry" />
        </mxCell>
        <mxCell id="-TdzUYb_KiUfpZxkLXkX-24" value="" style="endArrow=none;html=1;rounded=0;entryX=0.5;entryY=1;entryDx=0;entryDy=0;exitX=0.5;exitY=0;exitDx=0;exitDy=0;" parent="1" source="-TdzUYb_KiUfpZxkLXkX-21" target="-TdzUYb_KiUfpZxkLXkX-5" edge="1">
          <mxGeometry relative="1" as="geometry">
            <mxPoint x="37" y="470" as="sourcePoint" />
            <mxPoint x="197" y="470" as="targetPoint" />
          </mxGeometry>
        </mxCell>
        <mxCell id="-TdzUYb_KiUfpZxkLXkX-25" value="N" style="resizable=0;html=1;whiteSpace=wrap;align=right;verticalAlign=bottom;" parent="-TdzUYb_KiUfpZxkLXkX-24" connectable="0" vertex="1">
          <mxGeometry x="1" relative="1" as="geometry">
            <mxPoint y="20" as="offset" />
          </mxGeometry>
        </mxCell>
        <mxCell id="-TdzUYb_KiUfpZxkLXkX-26" value="adds" style="shape=rhombus;perimeter=rhombusPerimeter;whiteSpace=wrap;html=1;align=center;" parent="1" vertex="1">
          <mxGeometry x="-11.5" y="770" width="120" height="60" as="geometry" />
        </mxCell>
        <mxCell id="-TdzUYb_KiUfpZxkLXkX-27" value="" style="endArrow=none;html=1;rounded=0;exitX=0.5;exitY=0;exitDx=0;exitDy=0;entryX=0.5;entryY=1;entryDx=0;entryDy=0;" parent="1" source="-TdzUYb_KiUfpZxkLXkX-26" target="-TdzUYb_KiUfpZxkLXkX-3" edge="1">
          <mxGeometry relative="1" as="geometry">
            <mxPoint x="7" y="870" as="sourcePoint" />
            <mxPoint x="47" y="800" as="targetPoint" />
          </mxGeometry>
        </mxCell>
        <mxCell id="-TdzUYb_KiUfpZxkLXkX-28" value="1" style="resizable=0;html=1;whiteSpace=wrap;align=right;verticalAlign=bottom;" parent="-TdzUYb_KiUfpZxkLXkX-27" connectable="0" vertex="1">
          <mxGeometry x="1" relative="1" as="geometry">
            <mxPoint y="20" as="offset" />
          </mxGeometry>
        </mxCell>
        <mxCell id="-TdzUYb_KiUfpZxkLXkX-29" value="" style="endArrow=none;html=1;rounded=0;entryX=0.5;entryY=0;entryDx=0;entryDy=0;exitX=0.5;exitY=1;exitDx=0;exitDy=0;" parent="1" source="-TdzUYb_KiUfpZxkLXkX-26" target="-TdzUYb_KiUfpZxkLXkX-11" edge="1">
          <mxGeometry relative="1" as="geometry">
            <mxPoint x="48.5" y="860" as="sourcePoint" />
            <mxPoint x="48.5" y="770" as="targetPoint" />
          </mxGeometry>
        </mxCell>
        <mxCell id="-TdzUYb_KiUfpZxkLXkX-30" value="N" style="resizable=0;html=1;whiteSpace=wrap;align=right;verticalAlign=bottom;" parent="-TdzUYb_KiUfpZxkLXkX-29" connectable="0" vertex="1">
          <mxGeometry x="1" relative="1" as="geometry" />
        </mxCell>
        <mxCell id="-TdzUYb_KiUfpZxkLXkX-34" value="views" style="shape=rhombus;perimeter=rhombusPerimeter;whiteSpace=wrap;html=1;align=center;" parent="1" vertex="1">
          <mxGeometry x="310" y="570" width="120" height="60" as="geometry" />
        </mxCell>
        <mxCell id="-TdzUYb_KiUfpZxkLXkX-35" value="" style="endArrow=none;html=1;rounded=0;exitX=0;exitY=0.5;exitDx=0;exitDy=0;entryX=1;entryY=0.5;entryDx=0;entryDy=0;" parent="1" source="-TdzUYb_KiUfpZxkLXkX-34" target="-TdzUYb_KiUfpZxkLXkX-3" edge="1">
          <mxGeometry relative="1" as="geometry">
            <mxPoint x="47" y="560" as="sourcePoint" />
            <mxPoint x="47" y="600" as="targetPoint" />
          </mxGeometry>
        </mxCell>
        <mxCell id="-TdzUYb_KiUfpZxkLXkX-36" value="1" style="resizable=0;html=1;whiteSpace=wrap;align=right;verticalAlign=bottom;" parent="-TdzUYb_KiUfpZxkLXkX-35" connectable="0" vertex="1">
          <mxGeometry x="1" relative="1" as="geometry">
            <mxPoint x="14" as="offset" />
          </mxGeometry>
        </mxCell>
        <mxCell id="-TdzUYb_KiUfpZxkLXkX-37" value="" style="endArrow=none;html=1;rounded=0;entryX=0;entryY=0.5;entryDx=0;entryDy=0;exitX=1;exitY=0.5;exitDx=0;exitDy=0;" parent="1" source="-TdzUYb_KiUfpZxkLXkX-34" target="-TdzUYb_KiUfpZxkLXkX-6" edge="1">
          <mxGeometry relative="1" as="geometry">
            <mxPoint x="310" y="510" as="sourcePoint" />
            <mxPoint x="310" y="470" as="targetPoint" />
          </mxGeometry>
        </mxCell>
        <mxCell id="-TdzUYb_KiUfpZxkLXkX-38" value="N" style="resizable=0;html=1;whiteSpace=wrap;align=right;verticalAlign=bottom;" parent="-TdzUYb_KiUfpZxkLXkX-37" connectable="0" vertex="1">
          <mxGeometry x="1" relative="1" as="geometry" />
        </mxCell>
        <mxCell id="-TdzUYb_KiUfpZxkLXkX-39" value="configures" style="shape=rhombus;perimeter=rhombusPerimeter;whiteSpace=wrap;html=1;align=center;" parent="1" vertex="1">
          <mxGeometry x="178.5" y="770" width="120" height="60" as="geometry" />
        </mxCell>
        <mxCell id="-TdzUYb_KiUfpZxkLXkX-40" value="" style="endArrow=none;html=1;rounded=0;exitX=0;exitY=0.5;exitDx=0;exitDy=0;entryX=1;entryY=1;entryDx=0;entryDy=0;" parent="1" source="-TdzUYb_KiUfpZxkLXkX-39" target="-TdzUYb_KiUfpZxkLXkX-3" edge="1">
          <mxGeometry relative="1" as="geometry">
            <mxPoint x="227" y="650" as="sourcePoint" />
            <mxPoint x="157" y="650" as="targetPoint" />
          </mxGeometry>
        </mxCell>
        <mxCell id="-TdzUYb_KiUfpZxkLXkX-41" value="1" style="resizable=0;html=1;whiteSpace=wrap;align=right;verticalAlign=bottom;" parent="-TdzUYb_KiUfpZxkLXkX-40" connectable="0" vertex="1">
          <mxGeometry x="1" relative="1" as="geometry">
            <mxPoint y="20" as="offset" />
          </mxGeometry>
        </mxCell>
        <mxCell id="-TdzUYb_KiUfpZxkLXkX-42" value="" style="endArrow=none;html=1;rounded=0;exitX=1;exitY=0.5;exitDx=0;exitDy=0;entryX=0;entryY=0.5;entryDx=0;entryDy=0;" parent="1" source="-TdzUYb_KiUfpZxkLXkX-39" target="-TdzUYb_KiUfpZxkLXkX-8" edge="1">
          <mxGeometry relative="1" as="geometry">
            <mxPoint x="168.5" y="830" as="sourcePoint" />
            <mxPoint x="118.5" y="760" as="targetPoint" />
          </mxGeometry>
        </mxCell>
        <mxCell id="-TdzUYb_KiUfpZxkLXkX-43" value="1" style="resizable=0;html=1;whiteSpace=wrap;align=right;verticalAlign=bottom;" parent="-TdzUYb_KiUfpZxkLXkX-42" connectable="0" vertex="1">
          <mxGeometry x="1" relative="1" as="geometry" />
        </mxCell>
        <mxCell id="-TdzUYb_KiUfpZxkLXkX-44" value="" style="endArrow=none;html=1;rounded=0;entryX=0.5;entryY=1;entryDx=0;entryDy=0;exitX=0.5;exitY=0;exitDx=0;exitDy=0;" parent="1" source="-TdzUYb_KiUfpZxkLXkX-34" target="-TdzUYb_KiUfpZxkLXkX-4" edge="1">
          <mxGeometry relative="1" as="geometry">
            <mxPoint x="470" y="600" as="sourcePoint" />
            <mxPoint x="547" y="600" as="targetPoint" />
          </mxGeometry>
        </mxCell>
        <mxCell id="-TdzUYb_KiUfpZxkLXkX-45" value="N" style="resizable=0;html=1;whiteSpace=wrap;align=right;verticalAlign=bottom;" parent="-TdzUYb_KiUfpZxkLXkX-44" connectable="0" vertex="1">
          <mxGeometry x="1" relative="1" as="geometry">
            <mxPoint x="10" y="20" as="offset" />
          </mxGeometry>
        </mxCell>
        <mxCell id="-TdzUYb_KiUfpZxkLXkX-46" value="has" style="shape=rhombus;perimeter=rhombusPerimeter;whiteSpace=wrap;html=1;align=center;" parent="1" vertex="1">
          <mxGeometry x="310" y="270" width="120" height="60" as="geometry" />
        </mxCell>
        <mxCell id="-TdzUYb_KiUfpZxkLXkX-47" value="" style="endArrow=none;html=1;rounded=0;exitX=0.5;exitY=1;exitDx=0;exitDy=0;entryX=0.5;entryY=0;entryDx=0;entryDy=0;" parent="1" source="-TdzUYb_KiUfpZxkLXkX-46" target="-TdzUYb_KiUfpZxkLXkX-4" edge="1">
          <mxGeometry relative="1" as="geometry">
            <mxPoint x="717" y="340" as="sourcePoint" />
            <mxPoint x="607" y="310" as="targetPoint" />
          </mxGeometry>
        </mxCell>
        <mxCell id="-TdzUYb_KiUfpZxkLXkX-48" value="1" style="resizable=0;html=1;whiteSpace=wrap;align=right;verticalAlign=bottom;" parent="-TdzUYb_KiUfpZxkLXkX-47" connectable="0" vertex="1">
          <mxGeometry x="1" relative="1" as="geometry" />
        </mxCell>
        <mxCell id="-TdzUYb_KiUfpZxkLXkX-49" value="" style="endArrow=none;html=1;rounded=0;exitX=0.5;exitY=0;exitDx=0;exitDy=0;entryX=0.5;entryY=1;entryDx=0;entryDy=0;" parent="1" source="-TdzUYb_KiUfpZxkLXkX-46" target="-TdzUYb_KiUfpZxkLXkX-10" edge="1">
          <mxGeometry relative="1" as="geometry">
            <mxPoint x="587" y="300" as="sourcePoint" />
            <mxPoint x="400" y="290" as="targetPoint" />
          </mxGeometry>
        </mxCell>
        <mxCell id="-TdzUYb_KiUfpZxkLXkX-50" value="1" style="resizable=0;html=1;whiteSpace=wrap;align=right;verticalAlign=bottom;" parent="-TdzUYb_KiUfpZxkLXkX-49" connectable="0" vertex="1">
          <mxGeometry x="1" relative="1" as="geometry">
            <mxPoint y="20" as="offset" />
          </mxGeometry>
        </mxCell>
        <mxCell id="-TdzUYb_KiUfpZxkLXkX-53" value="" style="endArrow=none;html=1;rounded=0;exitX=0;exitY=0;exitDx=50;exitDy=0;entryX=0;entryY=0;entryDx=0;entryDy=0;exitPerimeter=0;" parent="1" source="-TdzUYb_KiUfpZxkLXkX-69" target="-TdzUYb_KiUfpZxkLXkX-3" edge="1">
          <mxGeometry relative="1" as="geometry">
            <mxPoint x="-53" y="480" as="sourcePoint" />
            <mxPoint x="47" y="590" as="targetPoint" />
          </mxGeometry>
        </mxCell>
        <mxCell id="-TdzUYb_KiUfpZxkLXkX-55" value="Admin" style="whiteSpace=wrap;html=1;align=center;" parent="1" vertex="1">
          <mxGeometry x="-263" y="200" width="100" height="40" as="geometry" />
        </mxCell>
        <mxCell id="-TdzUYb_KiUfpZxkLXkX-56" value="" style="endArrow=none;html=1;rounded=0;exitX=0.5;exitY=1;exitDx=0;exitDy=0;entryX=0.5;entryY=1;entryDx=0;entryDy=0;exitPerimeter=0;" parent="1" source="-TdzUYb_KiUfpZxkLXkX-69" target="-TdzUYb_KiUfpZxkLXkX-55" edge="1">
          <mxGeometry relative="1" as="geometry">
            <mxPoint x="-173" y="370" as="sourcePoint" />
            <mxPoint x="57" y="520" as="targetPoint" />
          </mxGeometry>
        </mxCell>
        <mxCell id="-TdzUYb_KiUfpZxkLXkX-58" value="adds" style="shape=rhombus;perimeter=rhombusPerimeter;whiteSpace=wrap;html=1;align=center;" parent="1" vertex="1">
          <mxGeometry x="-113" y="190" width="120" height="60" as="geometry" />
        </mxCell>
        <mxCell id="-TdzUYb_KiUfpZxkLXkX-59" value="" style="endArrow=none;html=1;rounded=0;exitX=0;exitY=0.5;exitDx=0;exitDy=0;entryX=1;entryY=0.5;entryDx=0;entryDy=0;" parent="1" source="-TdzUYb_KiUfpZxkLXkX-58" target="-TdzUYb_KiUfpZxkLXkX-55" edge="1">
          <mxGeometry relative="1" as="geometry">
            <mxPoint x="-183" y="400" as="sourcePoint" />
            <mxPoint x="-213" y="300" as="targetPoint" />
          </mxGeometry>
        </mxCell>
        <mxCell id="-TdzUYb_KiUfpZxkLXkX-60" value="1" style="resizable=0;html=1;whiteSpace=wrap;align=right;verticalAlign=bottom;" parent="-TdzUYb_KiUfpZxkLXkX-59" connectable="0" vertex="1">
          <mxGeometry x="1" relative="1" as="geometry">
            <mxPoint x="10" as="offset" />
          </mxGeometry>
        </mxCell>
        <mxCell id="-TdzUYb_KiUfpZxkLXkX-61" value="" style="endArrow=none;html=1;rounded=0;entryX=0;entryY=0.5;entryDx=0;entryDy=0;exitX=1;exitY=0.5;exitDx=0;exitDy=0;" parent="1" source="-TdzUYb_KiUfpZxkLXkX-58" target="-TdzUYb_KiUfpZxkLXkX-10" edge="1">
          <mxGeometry relative="1" as="geometry">
            <mxPoint x="87" y="190" as="sourcePoint" />
            <mxPoint x="87" y="150" as="targetPoint" />
          </mxGeometry>
        </mxCell>
        <mxCell id="-TdzUYb_KiUfpZxkLXkX-62" value="N" style="resizable=0;html=1;whiteSpace=wrap;align=right;verticalAlign=bottom;" parent="-TdzUYb_KiUfpZxkLXkX-61" connectable="0" vertex="1">
          <mxGeometry x="1" relative="1" as="geometry">
            <mxPoint y="20" as="offset" />
          </mxGeometry>
        </mxCell>
        <mxCell id="-TdzUYb_KiUfpZxkLXkX-63" style="edgeStyle=orthogonalEdgeStyle;rounded=0;orthogonalLoop=1;jettySize=auto;html=1;exitX=0.5;exitY=1;exitDx=0;exitDy=0;" parent="1" source="-TdzUYb_KiUfpZxkLXkX-55" target="-TdzUYb_KiUfpZxkLXkX-55" edge="1">
          <mxGeometry relative="1" as="geometry" />
        </mxCell>
        <mxCell id="-TdzUYb_KiUfpZxkLXkX-64" value="configures" style="shape=rhombus;perimeter=rhombusPerimeter;whiteSpace=wrap;html=1;align=center;" parent="1" vertex="1">
          <mxGeometry x="-413" y="240" width="120" height="60" as="geometry" />
        </mxCell>
        <mxCell id="-TdzUYb_KiUfpZxkLXkX-65" value="" style="endArrow=none;html=1;rounded=0;exitX=0.5;exitY=0;exitDx=0;exitDy=0;entryX=0;entryY=0.5;entryDx=0;entryDy=0;" parent="1" source="-TdzUYb_KiUfpZxkLXkX-64" target="-TdzUYb_KiUfpZxkLXkX-55" edge="1">
          <mxGeometry relative="1" as="geometry">
            <mxPoint x="297" y="560" as="sourcePoint" />
            <mxPoint x="364" y="560" as="targetPoint" />
          </mxGeometry>
        </mxCell>
        <mxCell id="-TdzUYb_KiUfpZxkLXkX-66" value="1" style="resizable=0;html=1;whiteSpace=wrap;align=right;verticalAlign=bottom;" parent="-TdzUYb_KiUfpZxkLXkX-65" connectable="0" vertex="1">
          <mxGeometry x="1" relative="1" as="geometry" />
        </mxCell>
        <mxCell id="-TdzUYb_KiUfpZxkLXkX-67" value="" style="endArrow=none;html=1;rounded=0;exitX=0.5;exitY=1;exitDx=0;exitDy=0;entryX=0.5;entryY=0;entryDx=0;entryDy=0;" parent="1" source="-TdzUYb_KiUfpZxkLXkX-64" target="-TdzUYb_KiUfpZxkLXkX-7" edge="1">
          <mxGeometry relative="1" as="geometry">
            <mxPoint x="-303" y="240" as="sourcePoint" />
            <mxPoint x="-213" y="220" as="targetPoint" />
          </mxGeometry>
        </mxCell>
        <mxCell id="-TdzUYb_KiUfpZxkLXkX-68" value="1" style="resizable=0;html=1;whiteSpace=wrap;align=right;verticalAlign=bottom;" parent="-TdzUYb_KiUfpZxkLXkX-67" connectable="0" vertex="1">
          <mxGeometry x="1" relative="1" as="geometry" />
        </mxCell>
        <mxCell id="-TdzUYb_KiUfpZxkLXkX-69" value="" style="verticalLabelPosition=bottom;verticalAlign=top;html=1;shape=mxgraph.basic.acute_triangle;dx=0.5;rotation=-225;" parent="1" vertex="1">
          <mxGeometry x="-153" y="330" width="100" height="70" as="geometry" />
        </mxCell>
        <mxCell id="-TdzUYb_KiUfpZxkLXkX-70" value="IsA" style="text;html=1;align=center;verticalAlign=middle;resizable=0;points=[];autosize=1;strokeColor=none;fillColor=none;" parent="1" vertex="1">
          <mxGeometry x="-130" y="340" width="40" height="30" as="geometry" />
        </mxCell>
        <mxCell id="-TdzUYb_KiUfpZxkLXkX-73" value="name" style="ellipse;whiteSpace=wrap;html=1;align=center;" parent="1" vertex="1">
          <mxGeometry x="-11.5" y="525" width="50" height="25" as="geometry" />
        </mxCell>
        <mxCell id="-TdzUYb_KiUfpZxkLXkX-74" value="email" style="ellipse;whiteSpace=wrap;html=1;align=center;" parent="1" vertex="1">
          <mxGeometry x="50" y="515" width="60" height="30" as="geometry" />
        </mxCell>
        <mxCell id="-TdzUYb_KiUfpZxkLXkX-75" value="password_hash" style="ellipse;whiteSpace=wrap;html=1;align=center;" parent="1" vertex="1">
          <mxGeometry x="120" y="510" width="100" height="40" as="geometry" />
        </mxCell>
        <mxCell id="-TdzUYb_KiUfpZxkLXkX-76" value="role" style="ellipse;whiteSpace=wrap;html=1;align=center;" parent="1" vertex="1">
          <mxGeometry x="130" y="560" width="40" height="25" as="geometry" />
        </mxCell>
        <mxCell id="-TdzUYb_KiUfpZxkLXkX-77" value="user_id" style="ellipse;whiteSpace=wrap;html=1;align=center;fontStyle=4;" parent="1" vertex="1">
          <mxGeometry x="120" y="615" width="60" height="35" as="geometry" />
        </mxCell>
        <mxCell id="-TdzUYb_KiUfpZxkLXkX-79" value="" style="endArrow=none;html=1;rounded=0;exitX=0.631;exitY=1;exitDx=0;exitDy=0;exitPerimeter=0;entryX=0.25;entryY=0;entryDx=0;entryDy=0;" parent="1" source="-TdzUYb_KiUfpZxkLXkX-73" target="-TdzUYb_KiUfpZxkLXkX-3" edge="1">
          <mxGeometry relative="1" as="geometry">
            <mxPoint x="50" y="520" as="sourcePoint" />
            <mxPoint x="210" y="520" as="targetPoint" />
          </mxGeometry>
        </mxCell>
        <mxCell id="-TdzUYb_KiUfpZxkLXkX-80" value="" style="endArrow=none;html=1;rounded=0;exitX=0.5;exitY=1;exitDx=0;exitDy=0;entryX=0.831;entryY=0.029;entryDx=0;entryDy=0;entryPerimeter=0;" parent="1" source="-TdzUYb_KiUfpZxkLXkX-74" target="-TdzUYb_KiUfpZxkLXkX-3" edge="1">
          <mxGeometry relative="1" as="geometry">
            <mxPoint x="90" y="550" as="sourcePoint" />
            <mxPoint x="92" y="580" as="targetPoint" />
          </mxGeometry>
        </mxCell>
        <mxCell id="-TdzUYb_KiUfpZxkLXkX-81" value="" style="endArrow=none;html=1;rounded=0;exitX=0.106;exitY=0.765;exitDx=0;exitDy=0;entryX=1;entryY=0;entryDx=0;entryDy=0;exitPerimeter=0;" parent="1" source="-TdzUYb_KiUfpZxkLXkX-75" target="-TdzUYb_KiUfpZxkLXkX-3" edge="1">
          <mxGeometry relative="1" as="geometry">
            <mxPoint x="110" y="550" as="sourcePoint" />
            <mxPoint x="110" y="586" as="targetPoint" />
          </mxGeometry>
        </mxCell>
        <mxCell id="-TdzUYb_KiUfpZxkLXkX-82" value="" style="endArrow=none;html=1;rounded=0;exitX=0.031;exitY=0.682;exitDx=0;exitDy=0;entryX=1;entryY=0;entryDx=0;entryDy=0;exitPerimeter=0;" parent="1" source="-TdzUYb_KiUfpZxkLXkX-76" target="-TdzUYb_KiUfpZxkLXkX-3" edge="1">
          <mxGeometry relative="1" as="geometry">
            <mxPoint x="144" y="560" as="sourcePoint" />
            <mxPoint x="110" y="599" as="targetPoint" />
          </mxGeometry>
        </mxCell>
        <mxCell id="-TdzUYb_KiUfpZxkLXkX-84" value="" style="endArrow=none;html=1;rounded=0;exitX=0.07;exitY=0.294;exitDx=0;exitDy=0;entryX=1;entryY=0.75;entryDx=0;entryDy=0;exitPerimeter=0;" parent="1" source="-TdzUYb_KiUfpZxkLXkX-77" target="-TdzUYb_KiUfpZxkLXkX-3" edge="1">
          <mxGeometry relative="1" as="geometry">
            <mxPoint x="144" y="630" as="sourcePoint" />
            <mxPoint x="110" y="633" as="targetPoint" />
          </mxGeometry>
        </mxCell>
        <mxCell id="-TdzUYb_KiUfpZxkLXkX-85" value="role_name" style="ellipse;whiteSpace=wrap;html=1;align=center;" parent="1" vertex="1">
          <mxGeometry x="-523" y="630" width="100" height="40" as="geometry" />
        </mxCell>
        <mxCell id="-TdzUYb_KiUfpZxkLXkX-86" value="role_id" style="ellipse;whiteSpace=wrap;html=1;align=center;fontStyle=4;" parent="1" vertex="1">
          <mxGeometry x="-423" y="650" width="100" height="40" as="geometry" />
        </mxCell>
        <mxCell id="-TdzUYb_KiUfpZxkLXkX-87" value="" style="endArrow=none;html=1;rounded=0;exitX=0.5;exitY=1;exitDx=0;exitDy=0;entryX=0.5;entryY=0;entryDx=0;entryDy=0;" parent="1" source="-TdzUYb_KiUfpZxkLXkX-9" target="-TdzUYb_KiUfpZxkLXkX-86" edge="1">
          <mxGeometry relative="1" as="geometry">
            <mxPoint x="-360" y="650" as="sourcePoint" />
            <mxPoint x="-358" y="680" as="targetPoint" />
          </mxGeometry>
        </mxCell>
        <mxCell id="-TdzUYb_KiUfpZxkLXkX-88" value="" style="endArrow=none;html=1;rounded=0;exitX=0;exitY=0.75;exitDx=0;exitDy=0;entryX=0.758;entryY=0.103;entryDx=0;entryDy=0;entryPerimeter=0;" parent="1" source="-TdzUYb_KiUfpZxkLXkX-9" target="-TdzUYb_KiUfpZxkLXkX-85" edge="1">
          <mxGeometry relative="1" as="geometry">
            <mxPoint x="-340" y="630" as="sourcePoint" />
            <mxPoint x="-320" y="650" as="targetPoint" />
          </mxGeometry>
        </mxCell>
        <mxCell id="zuxKne1U-OzCPCj8yrNz-1" value="keyword_id" style="ellipse;whiteSpace=wrap;html=1;align=center;fontStyle=4;" parent="1" vertex="1">
          <mxGeometry x="-50" y="980" width="100" height="40" as="geometry" />
        </mxCell>
        <mxCell id="zuxKne1U-OzCPCj8yrNz-2" value="" style="endArrow=none;html=1;rounded=0;exitX=0.409;exitY=1.03;exitDx=0;exitDy=0;entryX=0.5;entryY=0;entryDx=0;entryDy=0;exitPerimeter=0;" parent="1" source="-TdzUYb_KiUfpZxkLXkX-11" target="zuxKne1U-OzCPCj8yrNz-1" edge="1">
          <mxGeometry relative="1" as="geometry">
            <mxPoint x="38.5" y="970" as="sourcePoint" />
            <mxPoint x="53.5" y="1030" as="targetPoint" />
          </mxGeometry>
        </mxCell>
        <mxCell id="zuxKne1U-OzCPCj8yrNz-3" value="description" style="ellipse;whiteSpace=wrap;html=1;align=center;" parent="1" vertex="1">
          <mxGeometry x="-541" y="525" width="100" height="40" as="geometry" />
        </mxCell>
        <mxCell id="zuxKne1U-OzCPCj8yrNz-4" value="" style="endArrow=none;html=1;rounded=0;exitX=0.076;exitY=0.013;exitDx=0;exitDy=0;entryX=0.725;entryY=0.908;entryDx=0;entryDy=0;entryPerimeter=0;exitPerimeter=0;" parent="1" source="-TdzUYb_KiUfpZxkLXkX-9" target="zuxKne1U-OzCPCj8yrNz-3" edge="1">
          <mxGeometry relative="1" as="geometry">
            <mxPoint x="-414" y="539.9999999999999" as="sourcePoint" />
            <mxPoint x="-338" y="545" as="targetPoint" />
          </mxGeometry>
        </mxCell>
        <mxCell id="zuxKne1U-OzCPCj8yrNz-5" value="&lt;u&gt;news_id&lt;/u&gt;" style="ellipse;whiteSpace=wrap;html=1;align=center;" parent="1" vertex="1">
          <mxGeometry x="430" y="440" width="70" height="40" as="geometry" />
        </mxCell>
        <mxCell id="zuxKne1U-OzCPCj8yrNz-6" value="title" style="ellipse;whiteSpace=wrap;html=1;align=center;" parent="1" vertex="1">
          <mxGeometry x="450" y="370" width="70" height="40" as="geometry" />
        </mxCell>
        <mxCell id="zuxKne1U-OzCPCj8yrNz-7" value="content" style="ellipse;whiteSpace=wrap;html=1;align=center;" parent="1" vertex="1">
          <mxGeometry x="395.5" y="320" width="70" height="40" as="geometry" />
        </mxCell>
        <mxCell id="zuxKne1U-OzCPCj8yrNz-8" value="category_id" style="ellipse;whiteSpace=wrap;html=1;align=center;" parent="1" vertex="1">
          <mxGeometry x="260" y="430" width="70" height="40" as="geometry" />
        </mxCell>
        <mxCell id="zuxKne1U-OzCPCj8yrNz-9" value="source" style="ellipse;whiteSpace=wrap;html=1;align=center;" parent="1" vertex="1">
          <mxGeometry x="210" y="370" width="70" height="40" as="geometry" />
        </mxCell>
        <mxCell id="zuxKne1U-OzCPCj8yrNz-10" value="" style="endArrow=none;html=1;rounded=0;exitX=0;exitY=0.75;exitDx=0;exitDy=0;entryX=0.99;entryY=0.4;entryDx=0;entryDy=0;entryPerimeter=0;" parent="1" source="-TdzUYb_KiUfpZxkLXkX-4" target="zuxKne1U-OzCPCj8yrNz-9" edge="1">
          <mxGeometry relative="1" as="geometry">
            <mxPoint x="310" y="340" as="sourcePoint" />
            <mxPoint x="276" y="379" as="targetPoint" />
          </mxGeometry>
        </mxCell>
        <mxCell id="zuxKne1U-OzCPCj8yrNz-11" value="" style="endArrow=none;html=1;rounded=0;" parent="1" source="-TdzUYb_KiUfpZxkLXkX-4" target="zuxKne1U-OzCPCj8yrNz-8" edge="1">
          <mxGeometry relative="1" as="geometry">
            <mxPoint x="340" y="407" as="sourcePoint" />
            <mxPoint x="320" y="410" as="targetPoint" />
          </mxGeometry>
        </mxCell>
        <mxCell id="zuxKne1U-OzCPCj8yrNz-12" value="" style="endArrow=none;html=1;rounded=0;exitX=0.229;exitY=0.117;exitDx=0;exitDy=0;exitPerimeter=0;" parent="1" source="zuxKne1U-OzCPCj8yrNz-5" target="-TdzUYb_KiUfpZxkLXkX-4" edge="1">
          <mxGeometry relative="1" as="geometry">
            <mxPoint x="490" y="480" as="sourcePoint" />
            <mxPoint x="460" y="504" as="targetPoint" />
          </mxGeometry>
        </mxCell>
        <mxCell id="zuxKne1U-OzCPCj8yrNz-13" value="" style="endArrow=none;html=1;rounded=0;exitX=0.004;exitY=0.403;exitDx=0;exitDy=0;exitPerimeter=0;entryX=1;entryY=0.75;entryDx=0;entryDy=0;" parent="1" source="zuxKne1U-OzCPCj8yrNz-6" target="-TdzUYb_KiUfpZxkLXkX-4" edge="1">
          <mxGeometry relative="1" as="geometry">
            <mxPoint x="478" y="475" as="sourcePoint" />
            <mxPoint x="430" y="440" as="targetPoint" />
          </mxGeometry>
        </mxCell>
        <mxCell id="zuxKne1U-OzCPCj8yrNz-14" value="" style="endArrow=none;html=1;rounded=0;exitX=0.205;exitY=0.871;exitDx=0;exitDy=0;exitPerimeter=0;entryX=0.6;entryY=0;entryDx=0;entryDy=0;entryPerimeter=0;" parent="1" source="zuxKne1U-OzCPCj8yrNz-7" target="-TdzUYb_KiUfpZxkLXkX-4" edge="1">
          <mxGeometry relative="1" as="geometry">
            <mxPoint x="460" y="390" as="sourcePoint" />
            <mxPoint x="430" y="404" as="targetPoint" />
          </mxGeometry>
        </mxCell>
        <mxCell id="zuxKne1U-OzCPCj8yrNz-15" value="category_id" style="ellipse;whiteSpace=wrap;html=1;align=center;" parent="1" vertex="1">
          <mxGeometry x="343" y="140" width="70" height="40" as="geometry" />
        </mxCell>
        <mxCell id="zuxKne1U-OzCPCj8yrNz-16" value="name" style="ellipse;whiteSpace=wrap;html=1;align=center;" parent="1" vertex="1">
          <mxGeometry x="440" y="175" width="50" height="25" as="geometry" />
        </mxCell>
        <mxCell id="zuxKne1U-OzCPCj8yrNz-17" value="description" style="ellipse;whiteSpace=wrap;html=1;align=center;" parent="1" vertex="1">
          <mxGeometry x="220" y="150" width="100" height="40" as="geometry" />
        </mxCell>
        <mxCell id="zuxKne1U-OzCPCj8yrNz-19" value="" style="endArrow=none;html=1;rounded=0;entryX=0.5;entryY=1;entryDx=0;entryDy=0;" parent="1" source="-TdzUYb_KiUfpZxkLXkX-10" target="zuxKne1U-OzCPCj8yrNz-15" edge="1">
          <mxGeometry relative="1" as="geometry">
            <mxPoint x="430" y="360" as="sourcePoint" />
            <mxPoint x="400" y="375" as="targetPoint" />
          </mxGeometry>
        </mxCell>
        <mxCell id="zuxKne1U-OzCPCj8yrNz-20" value="" style="endArrow=none;html=1;rounded=0;exitX=1;exitY=0.25;exitDx=0;exitDy=0;" parent="1" source="-TdzUYb_KiUfpZxkLXkX-10" target="zuxKne1U-OzCPCj8yrNz-16" edge="1">
          <mxGeometry relative="1" as="geometry">
            <mxPoint x="400" y="200" as="sourcePoint" />
            <mxPoint x="404" y="180" as="targetPoint" />
          </mxGeometry>
        </mxCell>
        <mxCell id="zuxKne1U-OzCPCj8yrNz-21" value="" style="endArrow=none;html=1;rounded=0;entryX=0.5;entryY=1;entryDx=0;entryDy=0;exitX=0;exitY=0.25;exitDx=0;exitDy=0;" parent="1" source="-TdzUYb_KiUfpZxkLXkX-10" edge="1">
          <mxGeometry relative="1" as="geometry">
            <mxPoint x="270" y="210" as="sourcePoint" />
            <mxPoint x="274" y="190" as="targetPoint" />
          </mxGeometry>
        </mxCell>
        <mxCell id="zuxKne1U-OzCPCj8yrNz-23" value="news_id" style="ellipse;whiteSpace=wrap;html=1;align=center;" parent="1" vertex="1">
          <mxGeometry x="107" y="270" width="70" height="40" as="geometry" />
        </mxCell>
        <mxCell id="zuxKne1U-OzCPCj8yrNz-24" value="save&lt;span style=&quot;background-color: transparent; color: light-dark(rgb(0, 0, 0), rgb(255, 255, 255));&quot;&gt;_id&lt;/span&gt;" style="ellipse;whiteSpace=wrap;html=1;align=center;fontStyle=4" parent="1" vertex="1">
          <mxGeometry x="120" y="320" width="70" height="40" as="geometry" />
        </mxCell>
        <mxCell id="zuxKne1U-OzCPCj8yrNz-25" value="user_id" style="ellipse;whiteSpace=wrap;html=1;align=center;" parent="1" vertex="1">
          <mxGeometry x="13.5" y="230" width="70" height="40" as="geometry" />
        </mxCell>
        <mxCell id="zuxKne1U-OzCPCj8yrNz-26" value="" style="endArrow=none;html=1;rounded=0;entryX=1;entryY=1;entryDx=0;entryDy=0;" parent="1" source="zuxKne1U-OzCPCj8yrNz-24" target="-TdzUYb_KiUfpZxkLXkX-5" edge="1">
          <mxGeometry relative="1" as="geometry">
            <mxPoint x="134" y="350" as="sourcePoint" />
            <mxPoint x="100" y="389" as="targetPoint" />
          </mxGeometry>
        </mxCell>
        <mxCell id="zuxKne1U-OzCPCj8yrNz-27" value="" style="endArrow=none;html=1;rounded=0;" parent="1" source="-TdzUYb_KiUfpZxkLXkX-5" target="zuxKne1U-OzCPCj8yrNz-23" edge="1">
          <mxGeometry relative="1" as="geometry">
            <mxPoint x="175" y="414" as="sourcePoint" />
            <mxPoint x="150" y="410" as="targetPoint" />
          </mxGeometry>
        </mxCell>
        <mxCell id="zuxKne1U-OzCPCj8yrNz-28" value="" style="endArrow=none;html=1;rounded=0;" parent="1" source="-TdzUYb_KiUfpZxkLXkX-5" target="zuxKne1U-OzCPCj8yrNz-25" edge="1">
          <mxGeometry relative="1" as="geometry">
            <mxPoint x="15" y="274" as="sourcePoint" />
            <mxPoint x="-10" y="270" as="targetPoint" />
          </mxGeometry>
        </mxCell>
        <mxCell id="zuxKne1U-OzCPCj8yrNz-29" value="&lt;u&gt;notification_id&lt;/u&gt;" style="ellipse;whiteSpace=wrap;html=1;align=center;" parent="1" vertex="1">
          <mxGeometry x="650" y="580" width="100" height="40" as="geometry" />
        </mxCell>
        <mxCell id="zuxKne1U-OzCPCj8yrNz-30" value="user_id" style="ellipse;whiteSpace=wrap;html=1;align=center;" parent="1" vertex="1">
          <mxGeometry x="610" y="530" width="70" height="40" as="geometry" />
        </mxCell>
        <mxCell id="zuxKne1U-OzCPCj8yrNz-31" value="message" style="ellipse;whiteSpace=wrap;html=1;align=center;" parent="1" vertex="1">
          <mxGeometry x="507" y="515" width="70" height="40" as="geometry" />
        </mxCell>
        <mxCell id="zuxKne1U-OzCPCj8yrNz-32" value="" style="endArrow=none;html=1;rounded=0;" parent="1" source="zuxKne1U-OzCPCj8yrNz-29" target="-TdzUYb_KiUfpZxkLXkX-6" edge="1">
          <mxGeometry relative="1" as="geometry">
            <mxPoint x="668" y="665" as="sourcePoint" />
            <mxPoint x="620" y="630" as="targetPoint" />
          </mxGeometry>
        </mxCell>
        <mxCell id="zuxKne1U-OzCPCj8yrNz-33" value="" style="endArrow=none;html=1;rounded=0;" parent="1" source="zuxKne1U-OzCPCj8yrNz-30" target="-TdzUYb_KiUfpZxkLXkX-6" edge="1">
          <mxGeometry relative="1" as="geometry">
            <mxPoint x="673" y="710" as="sourcePoint" />
            <mxPoint x="630" y="710" as="targetPoint" />
          </mxGeometry>
        </mxCell>
        <mxCell id="zuxKne1U-OzCPCj8yrNz-34" value="" style="endArrow=none;html=1;rounded=0;" parent="1" source="zuxKne1U-OzCPCj8yrNz-31" target="-TdzUYb_KiUfpZxkLXkX-6" edge="1">
          <mxGeometry relative="1" as="geometry">
            <mxPoint x="713" y="720" as="sourcePoint" />
            <mxPoint x="670" y="720" as="targetPoint" />
          </mxGeometry>
        </mxCell>
        <mxCell id="zuxKne1U-OzCPCj8yrNz-35" value="config_id" style="ellipse;whiteSpace=wrap;html=1;align=center;fontStyle=4;" parent="1" vertex="1">
          <mxGeometry x="364" y="850" width="100" height="40" as="geometry" />
        </mxCell>
        <mxCell id="zuxKne1U-OzCPCj8yrNz-36" value="user_id" style="ellipse;whiteSpace=wrap;html=1;align=center;" parent="1" vertex="1">
          <mxGeometry x="500" y="830" width="70" height="40" as="geometry" />
        </mxCell>
        <mxCell id="zuxKne1U-OzCPCj8yrNz-37" value="keywords" style="ellipse;whiteSpace=wrap;html=1;align=center;" parent="1" vertex="1">
          <mxGeometry x="507" y="770" width="70" height="30" as="geometry" />
        </mxCell>
        <mxCell id="zuxKne1U-OzCPCj8yrNz-38" value="" style="endArrow=none;html=1;rounded=0;" parent="1" source="zuxKne1U-OzCPCj8yrNz-37" target="-TdzUYb_KiUfpZxkLXkX-8" edge="1">
          <mxGeometry relative="1" as="geometry">
            <mxPoint x="518" y="810" as="sourcePoint" />
            <mxPoint x="490" y="826" as="targetPoint" />
          </mxGeometry>
        </mxCell>
        <mxCell id="zuxKne1U-OzCPCj8yrNz-39" value="" style="endArrow=none;html=1;rounded=0;" parent="1" source="zuxKne1U-OzCPCj8yrNz-36" target="-TdzUYb_KiUfpZxkLXkX-8" edge="1">
          <mxGeometry relative="1" as="geometry">
            <mxPoint x="522" y="820" as="sourcePoint" />
            <mxPoint x="480" y="825" as="targetPoint" />
          </mxGeometry>
        </mxCell>
        <mxCell id="zuxKne1U-OzCPCj8yrNz-40" value="" style="endArrow=none;html=1;rounded=0;" parent="1" source="zuxKne1U-OzCPCj8yrNz-35" target="-TdzUYb_KiUfpZxkLXkX-8" edge="1">
          <mxGeometry relative="1" as="geometry">
            <mxPoint x="514" y="888" as="sourcePoint" />
            <mxPoint x="470" y="870" as="targetPoint" />
          </mxGeometry>
        </mxCell>
        <mxCell id="zuxKne1U-OzCPCj8yrNz-41" value="user_id" style="ellipse;whiteSpace=wrap;html=1;align=center;fontStyle=0;" parent="1" vertex="1">
          <mxGeometry x="70" y="980" width="100" height="40" as="geometry" />
        </mxCell>
        <mxCell id="zuxKne1U-OzCPCj8yrNz-42" value="keyword" style="ellipse;whiteSpace=wrap;html=1;align=center;fontStyle=0;" parent="1" vertex="1">
          <mxGeometry x="-130" y="930" width="100" height="40" as="geometry" />
        </mxCell>
        <mxCell id="zuxKne1U-OzCPCj8yrNz-43" value="" style="endArrow=none;html=1;rounded=0;" parent="1" source="-TdzUYb_KiUfpZxkLXkX-11" target="zuxKne1U-OzCPCj8yrNz-41" edge="1">
          <mxGeometry relative="1" as="geometry">
            <mxPoint x="149" y="960" as="sourcePoint" />
            <mxPoint x="110" y="989" as="targetPoint" />
          </mxGeometry>
        </mxCell>
        <mxCell id="zuxKne1U-OzCPCj8yrNz-44" value="" style="endArrow=none;html=1;rounded=0;" parent="1" source="-TdzUYb_KiUfpZxkLXkX-11" target="zuxKne1U-OzCPCj8yrNz-42" edge="1">
          <mxGeometry relative="1" as="geometry">
            <mxPoint x="89" y="960" as="sourcePoint" />
            <mxPoint x="50" y="989" as="targetPoint" />
          </mxGeometry>
        </mxCell>
        <mxCell id="zuxKne1U-OzCPCj8yrNz-45" value="api_id" style="ellipse;whiteSpace=wrap;html=1;align=center;fontStyle=4;" parent="1" vertex="1">
          <mxGeometry x="-403" y="410" width="100" height="40" as="geometry" />
        </mxCell>
        <mxCell id="zuxKne1U-OzCPCj8yrNz-46" value="api_name" style="ellipse;whiteSpace=wrap;html=1;align=center;fontStyle=0;" parent="1" vertex="1">
          <mxGeometry x="-513" y="390" width="100" height="40" as="geometry" />
        </mxCell>
        <mxCell id="zuxKne1U-OzCPCj8yrNz-47" value="base_url&lt;span style=&quot;color: rgba(0, 0, 0, 0); font-family: monospace; font-size: 0px; text-align: start; text-wrap-mode: nowrap;&quot;&gt;%3CmxGraphModel%3E%3Croot%3E%3CmxCell%20id%3D%220%22%2F%3E%3CmxCell%20id%3D%221%22%20parent%3D%220%22%2F%3E%3CmxCell%20id%3D%222%22%20value%3D%22api_name%22%20style%3D%22ellipse%3BwhiteSpace%3Dwrap%3Bhtml%3D1%3Balign%3Dcenter%3BfontStyle%3D4%3B%22%20vertex%3D%221%22%20parent%3D%221%22%3E%3CmxGeometry%20x%3D%22-513%22%20y%3D%22390%22%20width%3D%22100%22%20height%3D%2240%22%20as%3D%22geometry%22%2F%3E%3C%2FmxCell%3E%3C%2Froot%3E%3C%2FmxGraphModel%3E&lt;/span&gt;" style="ellipse;whiteSpace=wrap;html=1;align=center;fontStyle=0;" parent="1" vertex="1">
          <mxGeometry x="-530" y="320" width="100" height="40" as="geometry" />
        </mxCell>
        <mxCell id="zuxKne1U-OzCPCj8yrNz-48" value="api_key" style="ellipse;whiteSpace=wrap;html=1;align=center;fontStyle=0;" parent="1" vertex="1">
          <mxGeometry x="-283" y="390" width="100" height="40" as="geometry" />
        </mxCell>
        <mxCell id="zuxKne1U-OzCPCj8yrNz-49" value="status" style="ellipse;whiteSpace=wrap;html=1;align=center;fontStyle=0;" parent="1" vertex="1">
          <mxGeometry x="-280" y="330" width="100" height="40" as="geometry" />
        </mxCell>
        <mxCell id="zuxKne1U-OzCPCj8yrNz-50" value="" style="endArrow=none;html=1;rounded=0;" parent="1" source="zuxKne1U-OzCPCj8yrNz-45" target="-TdzUYb_KiUfpZxkLXkX-7" edge="1">
          <mxGeometry relative="1" as="geometry">
            <mxPoint x="-307" y="410" as="sourcePoint" />
            <mxPoint x="-360" y="390" as="targetPoint" />
          </mxGeometry>
        </mxCell>
        <mxCell id="zuxKne1U-OzCPCj8yrNz-51" value="" style="endArrow=none;html=1;rounded=0;" parent="1" source="zuxKne1U-OzCPCj8yrNz-46" target="-TdzUYb_KiUfpZxkLXkX-7" edge="1">
          <mxGeometry relative="1" as="geometry">
            <mxPoint x="-360" y="420" as="sourcePoint" />
            <mxPoint x="-360" y="380" as="targetPoint" />
          </mxGeometry>
        </mxCell>
        <mxCell id="zuxKne1U-OzCPCj8yrNz-52" value="" style="endArrow=none;html=1;rounded=0;" parent="1" source="zuxKne1U-OzCPCj8yrNz-47" target="-TdzUYb_KiUfpZxkLXkX-7" edge="1">
          <mxGeometry relative="1" as="geometry">
            <mxPoint x="-400" y="414" as="sourcePoint" />
            <mxPoint x="-356" y="390" as="targetPoint" />
          </mxGeometry>
        </mxCell>
        <mxCell id="zuxKne1U-OzCPCj8yrNz-53" value="" style="endArrow=none;html=1;rounded=0;" parent="1" source="-TdzUYb_KiUfpZxkLXkX-7" target="zuxKne1U-OzCPCj8yrNz-48" edge="1">
          <mxGeometry relative="1" as="geometry">
            <mxPoint x="-310" y="404" as="sourcePoint" />
            <mxPoint x="-266" y="380" as="targetPoint" />
          </mxGeometry>
        </mxCell>
        <mxCell id="zuxKne1U-OzCPCj8yrNz-54" value="" style="endArrow=none;html=1;rounded=0;" parent="1" source="-TdzUYb_KiUfpZxkLXkX-7" target="zuxKne1U-OzCPCj8yrNz-49" edge="1">
          <mxGeometry relative="1" as="geometry">
            <mxPoint x="-290" y="354" as="sourcePoint" />
            <mxPoint x="-246" y="330" as="targetPoint" />
          </mxGeometry>
        </mxCell>
      </root>
    </mxGraphModel>
  </diagram>
</mxfile>
